Patient4_TMGait_0pt4_02_right_05_EMG.mot
version=1
nRows=26
nColumns=33
inDegrees=no
endheader
time	1LAddLong	2LGlutMax	3LGlutMed	4LIliopsoas	5LSemiMemb	6LBicFemLong	7LRecFem	8LVastMed	9LVastLat	10LGasMed	11LTibAnt	12lTibPost	13LPeroneusLong	14LSol	15LExtDigLong	16LFlexDigLong	17RAddLong	18RGlutMax	19RGlutMed	20RIliopsoas	21RSemiMemb	22RBicFemLong	23RRecFem	24RVastMed	25RVastLat	26RGasMed	27RTibAnt	28RTibPost	29RPeroneusLong	30RSol	31RExtDigLong	32RFlexDigLong
6.96	0.013428	0.010071	-0.026245	0.004272	0.070801	0.1239	-0.11765	0.000763	-0.063171	0.002136	0.004578	0.018768	-0.24765	0.13428	0.027008	0.00473	-0.008698	-0.044556	0.14145	0.11337	0.000916	0.069885	-0.30411	0.003662	-0.014954	0.005188	0.14175	-0.032501	-0.63599	0.007324	-0.000458	-0.015106
6.961	0.003815	-0.021667	-0.062256	0.017242	0.084381	0.13718	-0.15564	0.017242	0.010986	0.01358	0.002594	0.013123	-0.24536	0.066223	-0.0177	-0.012054	-0.005646	0.005646	0.16174	0.12222	0.014954	0.089417	-0.29495	0.016022	-0.03006	0.00885	0.083618	-0.041046	-0.35934	0.6105	0.001526	-0.016022
6.962	0.003204	-0.032196	-0.02655	0.002136	0.038757	0.12421	-0.12222	0.010223	0.018158	0.017242	-0.006104	0.017853	-0.031586	0.018158	-0.089569	-0.004578	-0.00473	0.01297	0.21622	0.036774	0.017853	0.081787	-0.32577	0.00946	-0.02594	0.02594	-0.075073	-0.006256	-0.10849	0.4126	-0.002441	-0.012817
6.963	0.000153	-0.054169	0.016479	-0.00061	-0.037384	0.11871	-0.0383	-0.001526	0.015717	0.00351	-0.032654	0.015106	-0.015411	0.036621	-0.068054	-0.026703	-0.000305	0.00412	0.24078	-0.020905	0.025024	0.057068	-0.27481	-0.019226	-0.019989	-0.044861	-0.088806	-0.017395	0.24017	0.27313	-0.001831	-0.014954
6.964	-0.006409	-0.058289	0.020752	-0.006409	-0.12604	0.15045	0.006866	-0.019073	-0.006714	-0.002899	-0.032196	0.012665	-0.084076	0.059662	-0.059357	-0.000916	-0.005646	0.059509	0.32761	-0.054321	0.048523	0.069733	-0.28244	-0.031281	-0.029297	-0.029907	-0.067749	-0.007019	0.66879	0.31937	0.001526	-0.013123
6.965	-0.019073	-0.06073	-0.010986	0.00473	-0.093994	0.10346	-0.007019	-0.02533	-0.04425	0.009308	0.017242	0.023041	-0.12665	0.090942	-0.070953	-0.012054	-0.004883	-0.030823	0.015411	-0.00885	-0.063934	0.057068	-0.27771	-0.039368	-0.044403	-0.07309	-0.061646	0.009155	0.60867	0.56229	-0.001373	-0.010834
6.966	-0.011597	-0.072327	-0.011597	0.020142	-0.008392	0.041351	-0.042572	-0.000458	-0.02121	0.002747	-0.015717	0.037231	0.048676	0.084381	-0.04303	-0.009003	0.001984	-0.029907	0.083923	0.083008	-0.017395	-0.006104	-0.2861	-0.039063	-0.038452	0.023193	-0.0354	0.017548	0.44205	0.58792	0	-0.010529
6.967	-0.001984	-0.047607	-0.019379	0.029602	0.023956	-0.10696	-0.044861	0.024567	0.159	0.001526	-0.011597	0.013275	0.077972	0.12589	0.031128	-0.011139	0.006866	0.052338	0.052032	0.22095	0.004425	-0.037384	-0.28168	-0.076599	-0.024109	0.040588	-0.043945	-0.0177	0.36209	0.22049	-0.001221	-0.013885
6.968	0.003204	-0.075378	-0.024109	0.010681	0.12054	-0.33249	-0.005493	0.012512	0.21637	0.001831	-0.013885	0.020752	-0.00473	0.13046	0.043488	-0.013885	0.010376	0.024719	-0.066071	0.19073	0.00061	0.061493	-0.29465	-0.056	-0.013885	-0.007324	-0.01236	-0.042572	0.27786	0.021515	-0.00412	-0.009766
6.969	0.024567	-0.057831	-0.024261	0.000153	0.11643	-0.38971	-0.025482	0.006104	0.12543	0.003967	-0.012512	0.026245	-0.040131	0.13199	0.002747	-0.016327	0.018768	0.019836	-0.10941	0.12634	0.016022	0.052643	-0.29572	-0.03952	-0.023041	-0.004425	0.055695	-0.037537	0.1831	-0.071869	-0.001984	-0.02182
6.97	0.005188	-0.088196	-0.0177	-0.002441	0.019226	-0.23315	-0.090027	-0.002747	0.10971	-0.030823	-0.013733	0.020142	-0.078735	0.14191	-0.04364	-0.029907	0.015869	0.05722	0.13794	0.074463	0.049896	0.039825	-0.32715	-0.054779	-0.010834	0.033264	0.066833	-0.05188	-0.10117	-0.22263	-0.001678	-0.016327
6.971	-0.012207	-0.082855	-0.005493	0.005951	-0.011902	-0.13382	-0.079651	0.007324	0.071869	-0.045471	-0.020599	0.035858	-0.063934	0.12909	-0.049286	-0.029602	0.016174	-0.002747	0.10132	0.056152	0.072784	-0.033875	-0.36057	0.002747	-0.004883	0.023193	0.027161	-0.006714	0.22186	-0.45822	0.002441	-0.028076
6.972	-0.017853	-0.084686	-0.006409	0.01297	-0.065002	-0.17639	-0.090179	0.016632	0.072174	-0.020752	0.001068	0.02243	-0.060577	0.13199	-0.046234	-0.030823	0.029449	-0.019684	-0.14175	-0.088806	0.067749	-0.096436	-0.37399	0.003967	-0.028534	0.023499	0.059052	0.036011	0.17349	-0.52536	0.001831	-0.040131
6.973	-0.010529	-0.096283	0.025787	-0.004272	-0.092163	-0.20233	-0.075684	0.002136	0.070648	-0.040588	0.040588	0.024719	-0.095825	0.15839	-0.050354	-0.027161	0.032043	-0.026703	-0.070953	-0.1001	0.08316	-0.02594	-0.35446	-0.030365	-0.03006	0.02594	0.076752	-0.000763	-0.038605	-0.40771	0.00061	-0.030518
6.974	0.005646	-0.15182	0.037537	0.015259	-0.016327	-0.15701	-0.043945	0.009918	-0.041046	0.005646	0.048828	0.023956	-0.092468	0.14526	-0.037994	-0.033264	0.020142	-0.035858	0.01297	-0.085449	0.089874	0.076294	-0.32532	-0.043945	-0.018005	0.026703	0.035095	-0.015259	-0.00824	-0.36148	-0.002899	-0.023041
6.975	0.019073	-0.1442	0.042267	0.015564	0.090027	-0.079956	-0.081177	0.00412	-0.10346	-0.050507	-0.000458	0.018616	-0.064545	0.14664	-0.048828	-0.028229	0.017242	-0.054474	-0.076904	0.031586	0.069733	0.020447	-0.32867	-0.013275	-0.006409	0.028229	0.023041	-0.012207	-0.26596	-0.34805	-0.000458	-0.020294
6.976	0.016327	-0.082245	0.036316	0.020142	0.092773	-0.023956	-0.07782	0.011749	0.026398	-0.047455	-0.042114	0.00412	-0.015869	0.15137	-0.046997	-0.013275	0.01236	-0.036163	-0.06073	0.1326	0.069427	0.003357	-0.34042	-0.011139	-0.006866	0.029144	0.06012	-0.024567	-0.35309	-0.10803	-0.001373	-0.0177
6.977	-0.002289	-0.055847	0.023956	0.014038	0.031891	0.024109	-0.034332	0.019226	0.059509	-0.040588	-0.029297	-0.012207	-0.011139	0.12344	-0.027313	-0.014038	0.029755	0.010834	-0.32898	0.079956	0.077057	0.070801	-0.29221	-0.041199	-0.020599	0.027161	0.080109	-0.023346	-0.26016	0.19684	-0.005493	-0.019226
6.978	0.00351	-0.055389	-0.005341	0.001984	-0.015411	0.065308	-0.10223	0.00061	0.059509	-0.040283	-0.012054	-0.007019	-0.047607	0.13687	0.018005	-0.011444	0.012207	0.015869	-0.50171	0.071411	0.065765	0.15106	-0.26199	-0.063934	-0.001068	0.025024	0.038605	-0.027008	0.5098	0.091705	-0.001373	-0.018158
6.979	0.015564	-0.079346	0.026398	-0.002136	0.019531	0.19974	-0.10361	-0.022583	0.01236	-0.062866	-0.050201	-0.011444	-0.068817	0.14969	0.050812	0.000458	0.017395	-0.070953	-0.16769	0.075531	0.002289	0.19241	-0.27664	-0.078888	-0.008698	0.007935	0.041962	-0.016632	0.43015	0.016327	-0.002441	-0.027924
6.98	0.012512	-0.11276	0.040131	0.018158	0.055542	0.23789	-0.016327	-0.021515	-0.19913	-0.079346	-0.039368	-0.006561	-0.033875	0.15335	0.029602	0	0.005951	-0.086517	0.25848	0.069885	-0.099487	0.27847	-0.32745	-0.01358	0.016022	0.005646	-0.01358	-0.0177	0.39383	-0.004883	-0.002136	-0.021667
6.981	0.007019	-0.12451	0.023956	0.022125	0.026093	0.2562	0.049286	-0.031738	-0.36041	-0.08667	-0.003204	-0.010986	-0.037079	0.12253	0.00824	-0.001221	-0.030212	-0.11444	0.084686	0.048676	-0.056763	0.2066	-0.29709	-0.003052	0.018463	-0.010834	0.062866	-0.020905	-0.074463	-0.13321	-0.001831	-0.019379
6.982	-0.00473	-0.12894	0.000916	0.022736	-0.04303	0.23132	0.029755	-0.022736	-0.40344	-0.075684	0.010071	-0.002899	-0.065308	0.13412	-0.010681	0.006866	-0.018768	-0.083466	0.026703	0.021057	0.002289	0.060425	-0.30441	-0.042572	0.000916	-0.009918	0.060883	-0.030823	-0.35996	-0.19486	-0.000458	-0.016022
6.983	-0.014191	-0.10056	-0.005493	0.004272	-0.026093	0.094147	-0.027313	-0.006561	-0.37354	-0.065765	0.036774	-0.005341	-0.083923	0.033722	0.003815	0.010529	-0.006866	-0.074921	-0.046997	-0.014191	0.21561	-0.020142	-0.32364	0.012207	0.000763	0.011597	0.057831	-0.036774	-0.22201	-0.017853	-0.002899	-0.020905
6.984	-0.007782	-0.088806	0.007324	0.014954	0.060577	0.028992	-0.13153	-0.002899	-0.19363	-0.062103	0.018921	-0.001068	-0.095673	0.068665	0.008545	-0.004578	-0.012817	-0.12054	-0.06073	-0.023956	0.15106	-0.00061	-0.32913	0.026245	0.006866	0.026855	0.064087	-0.019989	0.27756	-0.011749	-0.001221	-0.020752
6.985	-0.001984	-0.080414	0.009766	0.000153	0.089722	0.078278	-0.17212	-0.003052	-0.052795	-0.046692	0.028839	-0.005798	-0.13901	0.011902	0.021057	-0.010986	-0.031738	-0.062256	-0.025635	-0.006256	-0.047607	0.01297	-0.35202	0.093536	0.025024	0.065918	-0.016785	-0.041809	0.85892	-0.36575	0.001831	-0.020142
